HIERARCHY
ROOT hip
{
	OFFSET 0.000000 0.000000 0.000000
	CHANNELS 6 Xposition Yposition Zposition Xrotation Zrotation Yrotation 
	JOINT abdomen
	{
		OFFSET 0.000000 3.422050 0.000000
		CHANNELS 3 Xrotation Zrotation Yrotation 
		JOINT chest
		{
			OFFSET 0.000000 8.486693 -0.684411
			CHANNELS 3 Xrotation Zrotation Yrotation 
			JOINT neck
			{
				OFFSET 0.000000 10.266162 -0.273764
				CHANNELS 3 Xrotation Zrotation Yrotation 
				JOINT head
				{
					OFFSET 0.000000 3.148285 0.000000
					CHANNELS 3 Xrotation Zrotation Yrotation 
					End Site
					{
						OFFSET 0.000000 3.148289 0.000000
					}
				}
			}
			JOINT lCollar
			{
				OFFSET 3.422053 6.707223 -0.821293
				CHANNELS 3 Yrotation Zrotation Xrotation 
				JOINT lShldr
				{
					OFFSET 3.285171 0.000000 0.000000
					CHANNELS 3 Zrotation Yrotation Xrotation 
					JOINT lForeArm
					{
						OFFSET 10.129278 0.000000 0.000000
						CHANNELS 3 Yrotation Zrotation Xrotation 
						JOINT lHand
						{
							OFFSET 8.486692 0.000000 0.000000
							CHANNELS 3 Zrotation Yrotation Xrotation 
							End Site
							{
								OFFSET 4.106464 0.000000 0.000000
							}
						}
					}
				}
			}
			JOINT rCollar
			{
				OFFSET -3.558935 6.707223 -0.821293
				CHANNELS 3 Yrotation Zrotation Xrotation 
				JOINT rShldr
				{
					OFFSET -3.148289 0.000000 0.000000
					CHANNELS 3 Zrotation Yrotation Xrotation 
					JOINT rForeArm
					{
						OFFSET -10.266159 0.000000 0.000000
						CHANNELS 3 Yrotation Zrotation Xrotation 
						JOINT rHand
						{
							OFFSET -8.349810 0.000000 0.000000
							CHANNELS 3 Zrotation Yrotation Xrotation 
							End Site
							{
								OFFSET -4.106464 0.000000 0.000000
							}
						}
					}
				}
			}
		}
	}
	JOINT lThigh
	{
		OFFSET 5.338403 -1.642589 1.368821
		CHANNELS 3 Xrotation Zrotation Yrotation 
		JOINT lShin
		{
			OFFSET -2.053232 -20.121670 0.000000
			CHANNELS 3 Xrotation Zrotation Yrotation 
			JOINT lFoot
			{
				OFFSET 0.000000 -19.300380 -1.231939
				CHANNELS 3 Xrotation Yrotation Zrotation 
				End Site
				{
					OFFSET 0.000000 -2.463878 4.653993
				}
			}
		}
	}
	JOINT rThigh
	{
		OFFSET -5.338403 -1.642589 1.368821
		CHANNELS 3 Xrotation Zrotation Yrotation 
		JOINT rShin
		{
			OFFSET 2.053232 -20.121670 0.000000
			CHANNELS 3 Xrotation Zrotation Yrotation 
			JOINT rFoot
			{
				OFFSET 0.000000 -19.300380 -1.231939
				CHANNELS 3 Xrotation Yrotation Zrotation 
				End Site
				{
					OFFSET 0.000000 -2.463878 4.653993
				}
			}
		}
	}
}
MOTION
Frames: 15
Frame Time: 0.033264
0.000001 42.996826 -32.004837 39.997601 0.000000 0.000000 61.238834 -1.318104 -1.535488 3.624632 -1.290076 -0.676515 -45.226826 0.000000 0.000000 -10.815371 0.000000 0.000000 62.898270 -31.171881 35.291916 -26.975733 24.649588 40.711197 -3.315530 2.885908 -0.397664 -5.553570 13.107504 0.075136 -60.535271 31.765148 33.501972 26.056299 -23.922394 40.709850 11.594309 0.401404 -0.218263 7.234993 13.126912 0.196889 -40.765160 14.876374 -10.766418 9.327593 -3.413004 -0.036303 -3.459249 8.843984 4.172257 -42.915550 -10.379673 1.038962 10.261879 -0.054114 0.309387 -5.555344 1.253106 -1.234256 
0.000001 42.996826 -32.004837 39.997601 0.000000 0.000000 61.388832 -1.318092 -1.535548 3.331724 -1.290065 -0.676489 -44.951576 0.000000 0.000000 -10.305684 0.000000 0.000000 63.021618 -31.071316 35.418064 -26.961281 24.642628 40.717152 -3.315530 2.885908 -0.397664 -5.553570 13.107504 0.075136 -60.650291 31.674095 33.628017 26.056299 -23.922394 40.709850 11.594309 0.401404 -0.218263 7.234993 13.126912 0.196889 -40.765163 14.876374 -10.766418 9.390506 -3.280799 -0.048477 -3.459249 8.843985 4.172257 -42.926647 -10.314714 1.295164 10.261879 -0.054114 0.309387 -5.536600 0.983934 -1.212197 
0.000001 42.996826 -32.004837 39.997601 0.000000 0.000000 61.538830 -1.318079 -1.535609 3.038826 -1.290054 -0.676463 -44.676334 0.000000 0.000000 -9.796043 0.000000 0.000000 63.144566 -30.970530 35.543839 -26.946833 24.635662 40.723099 -3.315530 2.885908 -0.397664 -5.553570 13.107504 0.075136 -60.764969 31.582832 33.753727 26.056299 -23.922394 40.709850 11.594308 0.401404 -0.218263 7.234993 13.126912 0.196889 -40.765160 14.876374 -10.766418 9.453377 -3.148580 -0.060504 -3.459249 8.843985 4.172258 -42.937443 -10.249708 1.551293 10.261879 -0.054114 0.309387 -5.517754 0.714776 -1.190052 
0.000001 42.996826 -32.004837 39.997601 0.000000 0.000000 61.688835 -1.318067 -1.535670 2.745941 -1.290042 -0.676437 -44.401115 0.000000 0.000000 -9.286475 0.000000 0.000000 63.267120 -30.869497 35.669209 -26.932390 24.628704 40.729046 -3.315530 2.885908 -0.397664 -5.553570 13.107504 0.075136 -60.879295 31.491364 33.879101 26.056299 -23.922394 40.709850 11.594309 0.401404 -0.218263 7.234993 13.126912 0.196889 -40.765160 14.876374 -10.766418 9.516216 -3.016351 -0.072383 -3.459249 8.843985 4.172257 -42.947952 -10.184662 1.807350 10.261879 -0.054114 0.309387 -5.498804 0.445636 -1.167820 
0.000001 42.996826 -32.004837 39.997601 0.000000 0.000000 61.838818 -1.318054 -1.535730 2.453073 -1.290030 -0.676412 -44.125889 0.000000 0.000000 -8.777000 0.000000 0.000000 63.389297 -30.768248 35.794201 -26.917940 24.621737 40.734989 -3.315530 2.885908 -0.397664 -5.553570 13.107504 0.075136 -60.993263 31.399668 34.004120 26.056299 -23.922394 40.709850 11.594309 0.401404 -0.218263 7.234993 13.126912 0.196889 -40.765160 14.876374 -10.766418 9.579019 -2.884109 -0.084116 -3.459249 8.843985 4.172257 -42.958149 -10.119568 2.063329 10.261879 -0.054114 0.309387 -5.479753 0.176517 -1.145502 
0.000001 42.996826 -32.004837 39.997601 0.000000 0.000000 61.988823 -1.318041 -1.535791 2.160226 -1.290019 -0.676386 -43.850697 0.000000 0.000000 -8.267632 0.000000 0.000000 63.511089 -30.666771 35.918816 -26.903494 24.614771 40.740932 -3.315530 2.885908 -0.397664 -5.553570 13.107504 0.075136 -61.106888 31.307770 34.128815 26.056299 -23.922394 40.709850 11.594308 0.401404 -0.218263 7.234993 13.126912 0.196889 -40.765163 14.876374 -10.766418 9.641784 -2.751858 -0.095703 -3.459249 8.843985 4.172257 -42.968063 -10.054436 2.319231 10.261879 -0.054114 0.309387 -5.460599 -0.092578 -1.123095 
0.000001 42.996826 -32.004837 39.997601 0.000000 0.000000 62.138802 -1.318028 -1.535851 1.867405 -1.290007 -0.676361 -43.575516 0.000000 0.000000 -7.758398 0.000000 0.000000 63.632473 -30.565065 36.043030 -26.889053 24.607803 40.746876 -3.315530 2.885908 -0.397664 -5.553570 13.107504 0.075136 -61.220169 31.215666 34.253166 26.056299 -23.922394 40.709850 11.594309 0.401404 -0.218263 7.234993 13.126912 0.196889 -40.765160 14.876374 -10.766418 9.704517 -2.619596 -0.107143 -3.459249 8.843985 4.172257 -42.977676 -9.989265 2.575052 10.261879 -0.054114 0.309387 -5.441340 -0.361646 -1.100599 
0.000001 42.996826 -32.004837 39.997601 0.000000 0.000000 62.288784 -1.318015 -1.535911 1.574612 -1.289995 -0.676335 -43.300346 0.000000 0.000000 -7.249313 0.000000 0.000000 63.753490 -30.463139 36.166870 -26.874609 24.600832 40.752804 -3.315530 2.885908 -0.397664 -5.553570 13.107504 0.075136 -61.333099 31.123352 34.377182 26.056299 -23.922394 40.709850 11.594310 0.401404 -0.218264 7.234993 13.126912 0.196889 -40.765160 14.876374 -10.766418 9.767215 -2.487325 -0.118436 -3.459249 8.843985 4.172258 -42.986980 -9.924057 2.830789 10.261879 -0.054114 0.309387 -5.421976 -0.630684 -1.078014 
0.000001 42.996826 -32.004837 39.997601 0.000000 0.000000 62.438763 -1.318002 -1.535972 1.281851 -1.289983 -0.676310 -43.025223 0.000000 0.000000 -6.740402 0.000000 0.000000 63.874126 -30.360994 36.290329 -26.860172 24.593866 40.758743 -3.315530 2.885908 -0.397664 -5.553570 13.107504 0.075136 -61.445686 31.030827 34.500862 26.056299 -23.922394 40.709850 11.594308 0.401404 -0.218263 7.234993 13.126912 0.196889 -40.765163 14.876374 -10.766418 9.829880 -2.355045 -0.129583 -3.459249 8.843985 4.172257 -42.995995 -9.858815 3.086444 10.261879 -0.054114 0.309387 -5.402507 -0.899689 -1.055338 
0.000001 42.996826 -32.004837 39.997601 0.000000 0.000000 62.588745 -1.317988 -1.536032 0.989127 -1.289971 -0.676285 -42.750118 0.000000 0.000000 -6.231678 0.000000 0.000000 63.994358 -30.258623 36.413403 -26.845730 24.586889 40.764671 -3.315530 2.885908 -0.397664 -5.553570 13.107504 0.075136 -61.557922 30.938105 34.624203 26.056299 -23.922394 40.709850 11.594309 0.401404 -0.218263 7.234993 13.126912 0.196889 -40.765163 14.876374 -10.766418 9.892509 -2.222757 -0.140584 -3.459249 8.843985 4.172257 -43.004715 -9.793543 3.342011 10.261879 -0.054114 0.309387 -5.382931 -1.168657 -1.032572 
0.000001 42.996826 -32.004837 39.997601 0.000000 0.000000 62.738708 -1.317975 -1.536092 0.696443 -1.289959 -0.676260 -42.475029 0.000000 0.000000 -5.723167 0.000000 0.000000 64.114212 -30.156036 36.536091 -26.831291 24.579916 40.770603 -3.315530 2.885908 -0.397664 -5.553570 13.107504 0.075136 -61.669811 30.845173 34.747211 26.056299 -23.922394 40.709850 11.594310 0.401404 -0.218264 7.234993 13.126912 0.196889 -40.765160 14.876374 -10.766418 9.955104 -2.090461 -0.151439 -3.459249 8.843984 4.172257 -43.013130 -9.728238 3.597491 10.261879 -0.054114 0.309387 -5.363249 -1.437586 -1.009714 
0.000001 42.996826 -32.004837 39.997601 0.000000 0.000000 62.888676 -1.317961 -1.536152 0.403803 -1.289946 -0.676235 -42.200005 0.000000 0.000000 -5.214887 0.000000 0.000000 64.233704 -30.053242 36.658413 -26.816858 24.572941 40.776531 -3.315530 2.885908 -0.397664 -5.553570 13.107504 0.075136 -61.781357 30.752035 34.869881 26.056299 -23.922394 40.709850 11.594308 0.401404 -0.218263 7.234993 13.126912 0.196889 -40.765160 14.876374 -10.766418 10.017672 -1.958159 -0.162148 -3.459249 8.843985 4.172257 -43.021259 -9.662906 3.852881 10.261879 -0.054114 0.309387 -5.343460 -1.706473 -0.986763 
0.000001 42.996826 -32.004837 39.997601 0.000000 0.000000 63.038639 -1.317947 -1.536212 0.111210 -1.289934 -0.676210 -41.925003 0.000000 0.000000 -4.706857 0.000000 0.000000 64.352783 -29.950216 36.780334 -26.802425 24.565969 40.782463 -3.315530 2.885908 -0.397664 -5.553570 13.107504 0.075136 -61.892559 30.658705 34.992218 26.056299 -23.922394 40.709850 11.594309 0.401404 -0.218263 7.234993 13.126912 0.196889 -40.765160 14.876374 -10.766418 10.080205 -1.825849 -0.172712 -3.459249 8.843985 4.172257 -43.029068 -9.597546 4.108177 10.261879 -0.054114 0.309387 -5.323563 -1.975314 -0.963720 
0.000001 42.996826 -32.004837 39.997601 0.000000 0.000000 63.188587 -1.317932 -1.536272 -0.181331 -1.289921 -0.676185 -41.650043 0.000000 0.000000 -4.199096 0.000000 0.000000 64.471481 -29.846977 36.901886 -26.787994 24.558990 40.788383 -3.315530 2.885908 -0.397664 -5.553570 13.107504 0.075136 -62.003418 30.565176 35.114227 26.056299 -23.922394 40.709850 11.594310 0.401404 -0.218264 7.234993 13.126912 0.196889 -40.765163 14.876374 -10.766418 10.142706 -1.693534 -0.183129 -3.459249 8.843985 4.172257 -43.036598 -9.532164 4.363380 10.261879 -0.054114 0.309387 -5.303557 -2.244108 -0.940582 
0.000001 42.996826 -32.004837 39.997601 0.000000 0.000000 63.338531 -1.317918 -1.536332 -0.473816 -1.289908 -0.676160 -41.375134 0.000000 0.000000 -3.691628 0.000000 0.000000 64.589821 -29.743542 37.023067 -26.773563 24.552010 40.794304 -3.315530 2.885908 -0.397664 -5.553570 13.107504 0.075136 -62.113945 30.471449 35.235897 26.056299 -23.922394 40.709850 11.594308 0.401404 -0.218263 7.234993 13.126912 0.196889 -40.765160 14.876374 -10.766418 10.205178 -1.561214 -0.193402 -3.459249 8.843985 4.172257 -43.043819 -9.466756 4.618485 10.261879 -0.054114 0.309387 -5.283442 -2.512849 -0.917350 
